<?xml version="1.0" encoding="UTF-8" standalone="no"?>
<!-- Generator: Adobe Illustrator 16.0.4, SVG Export Plug-In . SVG Version: 6.00 Build 0)  -->

<svg
   xmlns:dc="http://purl.org/dc/elements/1.1/"
   xmlns:cc="http://creativecommons.org/ns#"
   xmlns:rdf="http://www.w3.org/1999/02/22-rdf-syntax-ns#"
   xmlns:svg="http://www.w3.org/2000/svg"
   xmlns="http://www.w3.org/2000/svg"
   xmlns:sodipodi="http://sodipodi.sourceforge.net/DTD/sodipodi-0.dtd"
   xmlns:inkscape="http://www.inkscape.org/namespaces/inkscape"
   version="1.1"
   id="Layer_1"
   x="0px"
   y="0px"
   width="332.32385"
   height="64"
   viewBox="0 0 332.32386 64"
   enable-background="new 0 0 720 720"
   xml:space="preserve"
   inkscape:version="0.48.5 r10040"
   sodipodi:docname="boundless-logo.svg"
   inkscape:export-filename="/home/alex/devel/python/qgis-plugins/qgis-connect-plugin/boundlessconnect/icons/boundless-logo.png"
   inkscape:export-xdpi="55.58849"
   inkscape:export-ydpi="55.58849"><metadata
     id="metadata3175"><rdf:RDF><cc:Work
         rdf:about=""><dc:format>image/svg+xml</dc:format><dc:type
           rdf:resource="http://purl.org/dc/dcmitype/StillImage" /><dc:title /></cc:Work></rdf:RDF></metadata><defs
     id="defs3173" /><sodipodi:namedview
     pagecolor="#ffffff"
     bordercolor="#666666"
     borderopacity="1"
     objecttolerance="10"
     gridtolerance="10"
     guidetolerance="10"
     inkscape:pageopacity="0"
     inkscape:pageshadow="2"
     inkscape:window-width="1362"
     inkscape:window-height="745"
     id="namedview3171"
     showgrid="false"
     fit-margin-top="0"
     fit-margin-left="0"
     fit-margin-right="0"
     fit-margin-bottom="0"
     inkscape:zoom="1.6185736"
     inkscape:cx="323.20777"
     inkscape:cy="-7.4192648"
     inkscape:window-x="2"
     inkscape:window-y="0"
     inkscape:window-maximized="1"
     inkscape:current-layer="Layer_1" /><g
     id="g3045"
     transform="scale(0.51410991,0.51410991)"><path
       style="fill:#4e4f54"
       inkscape:connector-curvature="0"
       id="path3117"
       d="m 163.62,86.378 h 22.006 c 12.462,0 15.733,-4.866 15.733,-11.054 0,-7.336 -5.035,-11.405 -16.263,-11.405 h -21.477 v 22.459 z m 0,-29.708 h 23.509 c 7.693,0 12.376,-2.918 12.376,-9.726 0,-5.923 -2.919,-9.902 -15.468,-9.902 H 163.62 V 56.67 z m -9.19,-26.877 h 30.139 c 17.411,0 24.127,5.217 24.127,16.09 0,8.134 -4.507,12.554 -12.729,14.146 v 0.265 c 10.256,1.238 15.115,7.958 15.115,15.562 0,9.547 -6.982,17.771 -24.305,17.771 H 154.431 V 29.793 z" /><path
       style="fill:none;stroke:#4e4f54;stroke-width:0.84909999;stroke-miterlimit:10"
       inkscape:connector-curvature="0"
       id="path3119"
       d="m 163.62,86.378 h 22.006 c 12.462,0 15.733,-4.866 15.733,-11.054 0,-7.336 -5.035,-11.405 -16.263,-11.405 h -21.477 v 22.459 z m 0,-29.708 h 23.509 c 7.693,0 12.376,-2.918 12.376,-9.726 0,-5.923 -2.919,-9.902 -15.468,-9.902 H 163.62 V 56.67 z m -9.19,-26.877 h 30.139 c 17.411,0 24.127,5.217 24.127,16.09 0,8.134 -4.507,12.554 -12.729,14.146 v 0.265 c 10.256,1.238 15.115,7.958 15.115,15.562 0,9.547 -6.982,17.771 -24.305,17.771 H 154.431 V 29.793 z"
       stroke-miterlimit="10" /><path
       style="fill:#4e4f54"
       inkscape:connector-curvature="0"
       id="path3121"
       d="m 228.949,71.46 c 0,10.069 6.452,17.844 18.557,17.844 12.109,0 18.561,-7.775 18.561,-17.844 0,-10.072 -6.451,-17.844 -18.561,-17.844 -12.105,0 -18.557,7.772 -18.557,17.844 m 18.557,23.848 c -18.027,0 -27.751,-8.656 -27.751,-23.848 0,-14.398 9.194,-23.85 27.751,-23.85 18.031,0 27.75,8.657 27.75,23.85 0,15.192 -9.719,23.848 -27.75,23.848" /><path
       style="fill:none;stroke:#4e4f54;stroke-width:0.84909999;stroke-miterlimit:10"
       inkscape:connector-curvature="0"
       id="path3123"
       d="m 228.949,71.46 c 0,10.069 6.452,17.844 18.557,17.844 12.109,0 18.561,-7.775 18.561,-17.844 0,-10.072 -6.451,-17.844 -18.561,-17.844 -12.105,0 -18.557,7.772 -18.557,17.844 z m 18.557,23.848 c -18.027,0 -27.751,-8.656 -27.751,-23.848 0,-14.398 9.194,-23.85 27.751,-23.85 18.031,0 27.75,8.657 27.75,23.85 0,15.192 -9.719,23.848 -27.75,23.848 z"
       stroke-miterlimit="10" /><path
       style="fill:#4e4f54"
       inkscape:connector-curvature="0"
       id="path3125"
       d="m 333.884,83.562 v 10.07 h -8.126 V 85.77 h -0.178 c -5.033,6.802 -11.395,9.538 -19.345,9.538 -12.458,0 -21.468,-6.975 -21.468,-20.842 V 49.294 h 8.658 v 24.73 c 0,9.892 5.917,15.28 14.221,15.28 8.22,0 17.581,-5.035 17.581,-19.079 V 49.293 h 8.656 v 34.269 z" /><path
       style="fill:none;stroke:#4e4f54;stroke-width:0.84909999;stroke-miterlimit:10"
       inkscape:connector-curvature="0"
       id="path3127"
       d="m 333.884,83.562 v 10.07 h -8.126 V 85.77 h -0.178 c -5.033,6.802 -11.395,9.538 -19.345,9.538 -12.458,0 -21.468,-6.975 -21.468,-20.842 V 49.294 h 8.658 v 24.73 c 0,9.892 5.917,15.28 14.221,15.28 8.22,0 17.581,-5.035 17.581,-19.079 V 49.293 h 8.656 v 34.269 z"
       stroke-miterlimit="10" /><path
       style="fill:#4e4f54"
       inkscape:connector-curvature="0"
       id="path3129"
       d="M 344.812,59.357 V 49.289 h 8.125 c 0,0 0.002,4.769 0.002,7.859 h 0.178 c 5.034,-6.801 11.397,-9.538 19.345,-9.538 12.457,0 21.469,6.976 21.469,20.845 v 25.172 h -8.66 V 68.895 c 0,-9.89 -5.915,-15.278 -14.22,-15.278 -8.218,0 -17.58,5.034 -17.58,19.078 v 20.933 h -8.658 V 59.357 z" /><path
       style="fill:none;stroke:#4e4f54;stroke-width:0.84909999;stroke-miterlimit:10"
       inkscape:connector-curvature="0"
       id="path3131"
       d="M 344.812,59.357 V 49.289 h 8.125 c 0,0 0.002,4.769 0.002,7.859 h 0.178 c 5.034,-6.801 11.397,-9.538 19.345,-9.538 12.457,0 21.469,6.976 21.469,20.845 v 25.172 h -8.66 V 68.895 c 0,-9.89 -5.915,-15.278 -14.22,-15.278 -8.218,0 -17.58,5.034 -17.58,19.078 v 20.933 h -8.658 V 59.357 z"
       stroke-miterlimit="10" /><path
       style="fill:#4e4f54"
       inkscape:connector-curvature="0"
       id="path3133"
       d="m 430.125,89.298 c 10.252,0 17.499,-6.631 17.499,-17.861 0,-11.228 -7.247,-17.859 -17.499,-17.859 -10.338,0 -17.497,6.631 -17.497,17.859 0,11.23 7.159,17.861 17.497,17.861 m 17.499,-59.505 h 8.66 V 83.198 93.63 h -8.66 v -6.277 c -4.507,5.129 -11.578,7.957 -19.44,7.957 -13.254,0 -24.741,-9.461 -24.741,-23.873 0,-14.412 11.487,-23.873 24.741,-23.873 7.067,0 13.961,1.682 19.44,7.516 V 29.793 z" /><path
       style="fill:none;stroke:#4e4f54;stroke-width:0.84909999;stroke-miterlimit:10"
       inkscape:connector-curvature="0"
       id="path3135"
       d="m 430.125,89.298 c 10.252,0 17.499,-6.631 17.499,-17.861 0,-11.228 -7.247,-17.859 -17.499,-17.859 -10.338,0 -17.497,6.631 -17.497,17.859 0,11.23 7.159,17.861 17.497,17.861 z m 17.499,-59.505 h 8.66 V 83.198 93.63 h -8.66 v -6.277 c -4.507,5.129 -11.578,7.957 -19.44,7.957 -13.254,0 -24.741,-9.461 -24.741,-23.873 0,-14.412 11.487,-23.873 24.741,-23.873 7.067,0 13.961,1.682 19.44,7.516 V 29.793 z"
       stroke-miterlimit="10" /><rect
       style="fill:#4e4f54"
       id="rect3137"
       height="63.833"
       width="8.5209999"
       y="29.792999"
       x="467.97998" /><rect
       style="fill:none;stroke:#4e4f54;stroke-width:0.84909999;stroke-miterlimit:10"
       id="rect3139"
       height="63.833"
       width="8.5209999"
       stroke-miterlimit="10"
       y="29.792999"
       x="467.97998" /><path
       style="fill:#4e4f54"
       inkscape:connector-curvature="0"
       id="path3141"
       d="m 527.79,67.752 c -0.176,-10.25 -7.771,-14.136 -15.371,-14.136 -8.927,0 -15.287,4.329 -16.612,14.136 h 31.983 z m 9.192,6.004 h -41.528 c 0.884,9.099 6.714,15.547 16.438,15.547 6.267,0 12.895,-2.651 14.839,-9.009 h 9.187 c -1.766,11.836 -13.78,15.016 -23.586,15.016 -16.255,0 -25.532,-8.92 -25.532,-22.967 0,-16.164 9.715,-24.735 25.797,-24.735 15.723,0 24.387,8.48 24.387,23.499 v 2.649 z" /><path
       style="fill:none;stroke:#4e4f54;stroke-width:0.84909999;stroke-miterlimit:10"
       inkscape:connector-curvature="0"
       id="path3143"
       d="m 527.79,67.752 c -0.176,-10.25 -7.771,-14.136 -15.371,-14.136 -8.927,0 -15.287,4.329 -16.612,14.136 h 31.983 z m 9.192,6.004 h -41.528 c 0.884,9.099 6.714,15.547 16.438,15.547 6.267,0 12.895,-2.651 14.839,-9.009 h 9.187 c -1.766,11.836 -13.78,15.016 -23.586,15.016 -16.255,0 -25.532,-8.92 -25.532,-22.967 0,-16.164 9.715,-24.735 25.797,-24.735 15.723,0 24.387,8.48 24.387,23.499 v 2.649 z"
       stroke-miterlimit="10" /><path
       style="fill:#4e4f54"
       inkscape:connector-curvature="0"
       id="path3145"
       d="m 553.527,81 c 0.798,6.183 6.451,8.304 14.31,8.304 9.716,0 14.484,-3.004 14.484,-7.686 0,-10.337 -35.855,-2.473 -35.855,-20.14 0,-9.805 9.269,-13.87 21.549,-13.87 9.184,0 21.021,2.297 21.552,13.164 h -8.395 c -1.235,-5.564 -6.183,-7.156 -12.806,-7.156 -7.77,0 -13.247,2.651 -13.247,6.713 0,3.093 2.826,5.036 9.449,6.272 l 14.665,2.737 c 8.302,1.591 12.273,5.037 12.273,11.661 0,9.452 -7.859,14.308 -24.644,14.308 -11.832,0 -21.899,-3.973 -22.519,-14.308 h 9.184 z" /><path
       style="fill:none;stroke:#4e4f54;stroke-width:0.84909999;stroke-miterlimit:10"
       inkscape:connector-curvature="0"
       id="path3147"
       d="m 553.527,81 c 0.798,6.183 6.451,8.304 14.31,8.304 9.716,0 14.484,-3.004 14.484,-7.686 0,-10.337 -35.855,-2.473 -35.855,-20.14 0,-9.805 9.269,-13.87 21.549,-13.87 9.184,0 21.021,2.297 21.552,13.164 h -8.395 c -1.235,-5.564 -6.183,-7.156 -12.806,-7.156 -7.77,0 -13.247,2.651 -13.247,6.713 0,3.093 2.826,5.036 9.449,6.272 l 14.665,2.737 c 8.302,1.591 12.273,5.037 12.273,11.661 0,9.452 -7.859,14.308 -24.644,14.308 -11.832,0 -21.899,-3.973 -22.519,-14.308 h 9.184 z"
       stroke-miterlimit="10" /><path
       style="fill:#4e4f54"
       inkscape:connector-curvature="0"
       id="path3149"
       d="m 608.016,81 c 0.791,6.183 6.442,8.304 14.307,8.304 9.714,0 14.483,-3.004 14.483,-7.686 0,-10.337 -35.858,-2.473 -35.858,-20.14 0,-9.805 9.273,-13.87 21.552,-13.87 9.186,0 21.02,2.297 21.549,13.164 h -8.388 c -1.241,-5.564 -6.185,-7.156 -12.81,-7.156 -7.772,0 -13.248,2.651 -13.248,6.713 0,3.093 2.827,5.036 9.45,6.272 l 14.662,2.737 c 8.303,1.591 12.276,5.037 12.276,11.661 0,9.452 -7.858,14.308 -24.642,14.308 -11.834,0 -21.903,-3.973 -22.525,-14.308 h 9.192 z" /><path
       style="fill:none;stroke:#4e4f54;stroke-width:0.84909999;stroke-miterlimit:10"
       inkscape:connector-curvature="0"
       id="path3151"
       d="m 608.016,81 c 0.791,6.183 6.442,8.304 14.307,8.304 9.714,0 14.483,-3.004 14.483,-7.686 0,-10.337 -35.858,-2.473 -35.858,-20.14 0,-9.805 9.273,-13.87 21.552,-13.87 9.186,0 21.02,2.297 21.549,13.164 h -8.388 c -1.241,-5.564 -6.185,-7.156 -12.81,-7.156 -7.772,0 -13.248,2.651 -13.248,6.713 0,3.093 2.827,5.036 9.45,6.272 l 14.662,2.737 c 8.303,1.591 12.276,5.037 12.276,11.661 0,9.452 -7.858,14.308 -24.642,14.308 -11.834,0 -21.903,-3.973 -22.525,-14.308 h 9.192 z"
       stroke-miterlimit="10" /><path
       style="fill:#2b738c"
       inkscape:connector-curvature="0"
       id="path3153"
       d="m 48.584,55.341 c -4.1,7.589 -1.283,17.062 6.307,21.166 7.593,4.105 17.066,1.282 21.165,-6.302 4.106,-7.589 1.283,-17.067 -6.303,-21.169 -7.584,-4.1 -17.065,-1.284 -21.169,6.305" /><path
       style="fill:#f68c4f"
       inkscape:connector-curvature="0"
       id="path3155"
       d="m 119.73,48.839 -0.442,-0.444 c 0.14,0.161 0.257,0.334 0.391,0.496 l 0.051,-0.052 z" /><path
       style="fill:#fccd34"
       inkscape:connector-curvature="0"
       id="path3157"
       d="m 62.16,21.447 c 0,0 -10.314,-9.182 -24.818,-5.178 -0.175,0.048 -0.343,0.071 -0.517,0.126 L 46.557,6.729 C 46.79,6.482 47.048,6.26 47.293,6.024 L 47.223,5.973 8.45,44.826 8.518,45.089 7.876,45.731 C 3.072,49.666 0,55.642 0,62.338 c 0,5.004 1.734,9.591 4.608,13.242 0.159,0.206 0.314,0.416 0.483,0.613 0.52,0.609 1.061,1.199 1.644,1.751 l 9.662,9.732 C 16.373,87.599 16.361,87.523 16.341,87.445 12.131,72.787 21.448,62.339 21.448,62.339 L 21.503,62.284 62.321,21.61 62.16,21.447 z" /><path
       style="fill:#f68c4f"
       inkscape:connector-curvature="0"
       id="path3159"
       d="m 36.825,16.394 c 0.173,-0.054 0.342,-0.078 0.517,-0.125 14.504,-4.004 24.818,5.177 24.818,5.177 l 0.162,0.162 36.267,36.401 c 5.992,-9.002 4.297,-21.067 2.668,-27.649 L 78.77,7.876 C 74.837,3.066 68.86,0 62.16,0 56.378,0 51.15,2.304 47.293,6.025 47.048,6.261 46.791,6.483 46.557,6.73 l -9.732,9.664 z" /><path
       style="fill:#00a68c"
       inkscape:connector-curvature="0"
       id="path3161"
       d="m 4.544,75.646 0.547,0.546 C 4.921,75.995 4.768,75.783 4.607,75.579 l -0.063,0.067 z" /><path
       style="fill:#bdd64c"
       inkscape:connector-curvature="0"
       id="path3163"
       d="m 119.679,48.89 c -0.134,-0.162 -0.251,-0.335 -0.389,-0.496 -0.505,-0.583 -1.027,-1.145 -1.586,-1.676 l -9.666,-9.733 c 0.023,0.069 0.032,0.141 0.051,0.212 4.225,14.67 -5.101,25.126 -5.101,25.126 l -0.047,0.047 -40.823,40.676 c 0.098,0.084 10.589,9.363 25.268,5.06 L 116.56,78.93 c 4.803,-3.933 7.875,-9.91 7.875,-16.606 0,-5.094 -1.793,-9.756 -4.756,-13.434" /><path
       style="fill:#bdd64c"
       inkscape:connector-curvature="0"
       id="path3165"
       d="m 75.481,119.777 0.113,0.117 5.202,-5.2 -3.081,3.058 c -0.692,0.73 -1.451,1.396 -2.234,2.025" /><path
       style="fill:#00a68c"
       inkscape:connector-curvature="0"
       id="path3167"
       d="M 62.118,103.044 62.11,103.036 26.162,66.957 c -6.012,8.727 -4.623,20.485 -3.035,27.271 l 22.378,22.379 c 3.933,4.808 9.909,7.88 16.605,7.88 5.063,0 9.701,-1.775 13.373,-4.71 0.783,-0.629 1.54,-1.294 2.233,-2.025 l 3.081,-3.057 6.653,-6.605 c -0.024,0.003 -0.044,0.008 -0.063,0.016 -14.68,4.304 -25.171,-4.976 -25.269,-5.062" /></g><path
     d="m 643.611,298.8 c 0.942,0 1.751,0.725 1.751,1.668 0,0.942 -0.787,1.71 -1.751,1.71 -0.924,0 -1.756,-0.723 -1.756,-1.665 0,-0.945 0.789,-1.713 1.756,-1.713"
     id="path3169"
     inkscape:connector-curvature="0"
     style="fill:#94999c" /></svg>