<?xml version="1.0" encoding="UTF-8" standalone="no"?>
<!-- Created with Inkscape (http://www.inkscape.org/) -->

<svg
   xmlns:dc="http://purl.org/dc/elements/1.1/"
   xmlns:cc="http://creativecommons.org/ns#"
   xmlns:rdf="http://www.w3.org/1999/02/22-rdf-syntax-ns#"
   xmlns:svg="http://www.w3.org/2000/svg"
   xmlns="http://www.w3.org/2000/svg"
   xmlns:sodipodi="http://sodipodi.sourceforge.net/DTD/sodipodi-0.dtd"
   xmlns:inkscape="http://www.inkscape.org/namespaces/inkscape"
   id="svg2"
   version="1.1"
   inkscape:version="0.91 r13725"
   xml:space="preserve"
   width="147.10686"
   height="147.16937"
   viewBox="0 0 147.10686 147.16937"
   sodipodi:docname="Boundless_Logo_Icon.svg"><metadata
     id="metadata8"><rdf:RDF><cc:Work
         rdf:about=""><dc:format>image/svg+xml</dc:format><dc:type
           rdf:resource="http://purl.org/dc/dcmitype/StillImage" /><dc:title></dc:title></cc:Work></rdf:RDF></metadata><defs
     id="defs6"><clipPath
       clipPathUnits="userSpaceOnUse"
       id="clipPath18"><path
         d="m 0,337 612,0 0,118 -612,0 0,-118 z"
         id="path20"
         inkscape:connector-curvature="0" /></clipPath><clipPath
       clipPathUnits="userSpaceOnUse"
       id="clipPath76"><path
         d="m 0.06980989,454.8053 611.64629011,0 0,-117.7355 -611.64629011,0 0,117.7355 z"
         id="path78"
         inkscape:connector-curvature="0" /></clipPath><clipPath
       clipPathUnits="userSpaceOnUse"
       id="clipPath82"><path
         d="m 0,337 612,0 0,118 -612,0 0,-118 z"
         id="path84"
         inkscape:connector-curvature="0" /></clipPath><clipPath
       clipPathUnits="userSpaceOnUse"
       id="clipPath98"><path
         d="m 0,337 612,0 0,118 -612,0 0,-118 z"
         id="path100"
         inkscape:connector-curvature="0" /></clipPath><clipPath
       clipPathUnits="userSpaceOnUse"
       id="clipPath110"><path
         d="m 0.06980989,454.8053 611.64629011,0 0,-117.7355 -611.64629011,0 0,117.7355 z"
         id="path112"
         inkscape:connector-curvature="0" /></clipPath><clipPath
       clipPathUnits="userSpaceOnUse"
       id="clipPath116"><path
         d="m 0,337 612,0 0,118 -612,0 0,-118 z"
         id="path118"
         inkscape:connector-curvature="0" /></clipPath></defs><sodipodi:namedview
     pagecolor="#ffffff"
     bordercolor="#666666"
     borderopacity="1"
     objecttolerance="10"
     gridtolerance="10"
     guidetolerance="10"
     inkscape:pageopacity="0"
     inkscape:pageshadow="2"
     inkscape:window-width="1261"
     inkscape:window-height="682"
     id="namedview4"
     showgrid="false"
     inkscape:zoom="0.47676768"
     inkscape:cx="137.72206"
     inkscape:cy="149.08235"
     inkscape:window-x="0"
     inkscape:window-y="0"
     inkscape:window-maximized="0"
     inkscape:current-layer="g10"
     fit-margin-top="0"
     fit-margin-left="0"
     fit-margin-right="0"
     fit-margin-bottom="0" /><g
     id="g10"
     inkscape:groupmode="layer"
     inkscape:label="Boundless_Logo_HR"
     transform="matrix(1.25,0,0,-1.25,-293.73132,570.60408)"><g
       id="g3478"
       transform="translate(234.91525,1.6779661)"><g
         id="g74"
         clip-path="url(#clipPath76)"><g
           id="g80"
           clip-path="url(#clipPath82)"><g
             id="g86"
             transform="matrix(1.163498,0,0,1.163498,0,337)" /><path
             d="m 45.97563,402.4316 c -3.87794,-7.1799 -1.21353,-16.1458 5.96874,-20.0284 7.18577,-3.8849 16.15052,-1.2135 20.02846,5.9641 3.88608,7.1811 1.21353,16.1493 -5.96409,20.0319 -7.17762,3.8803 -16.14819,1.2147 -20.03311,-5.9676"
             style="fill:#357090;fill-opacity:1;fill-rule:nonzero;stroke:none"
             id="path90"
             inkscape:connector-curvature="0" /><path
             d="m 35.01198,439.3425 c 13.97013,3.9884 23.81099,-4.8344 23.81099,-4.8344 l 0.15359,-0.1524 -38.62814,-38.4908 -0.05236,-0.0512 c 0,0 -8.81466,-9.8874 -4.83317,-23.7587 0.02094,-0.0756 0.03025,-0.1442 0.05352,-0.221 l -9.142767,9.2125 c -0.551499,0.5213 -1.065765,1.0786 -1.556761,1.6557 -0.160563,0.185 -0.306,0.384 -0.458418,0.5806 C 1.641696,386.7372 0,391.0782 0,395.8137 c 0,6.3352 2.907582,11.991 7.452205,15.713 l 0.607346,0.6085 26.952429,27.2073"
             style="fill:#faca1e;fill-opacity:1;fill-rule:nonzero;stroke:none"
             id="path92"
             inkscape:connector-curvature="0" /></g></g><g
         id="g94"><g
           clip-path="url(#clipPath98)"
           id="g96"><path
             inkscape:connector-curvature="0"
             id="path102"
             style="fill:#f57b3f;fill-opacity:1;fill-rule:nonzero;stroke:none"
             d="m 35.01198,439.3425 c 0.16289,0.0488 0.16057,0.0209 0.32462,0.0651 13.72695,3.7884 23.48637,-4.8995 23.48637,-4.8995 l 0.15359,-0.1524 34.32086,-34.4477 c 5.66973,8.5191 4.06526,19.9366 2.52363,26.1648 L 74.54067,447.352 c -3.72203,4.5493 -9.3778,7.4533 -15.7177,7.4533 -5.47076,0 -10.41912,-2.1815 -14.06785,-5.7023 -0.23154,-0.2233 -0.47587,-0.4328 -0.69461,-0.6678 l -9.04853,-9.0927" /><path
             inkscape:connector-curvature="0"
             id="path104"
             style="fill:#b0dc32;fill-opacity:1;fill-rule:nonzero;stroke:none"
             d="m 113.2549,408.5388 c -0.128,0.1525 -0.2385,0.3165 -0.3688,0.4689 -0.4771,0.5504 -0.9704,1.0833 -1.4998,1.5859 l -9.1474,9.2114 c 0.0221,-0.0687 0.0303,-0.135 0.0477,-0.2036 3.999,-13.8817 -4.82735,-23.7773 -4.82735,-23.7773 l -0.04421,-0.0442 -38.63163,-38.4908 c 0.09192,-0.0815 10.02238,-8.8624 23.91105,-4.7867 l 27.60864,27.6087 c 4.5458,3.722 7.4522,9.3766 7.4522,15.713 0,4.8227 -1.6964,9.2336 -4.5004,12.7147" /></g></g><g
         id="g106"><g
           clip-path="url(#clipPath110)"
           id="g108"><g
             clip-path="url(#clipPath116)"
             id="g114"><path
               inkscape:connector-curvature="0"
               id="path120"
               style="fill:#b0dc32;fill-opacity:1;fill-rule:nonzero;stroke:none"
               d="m 71.42948,341.4574 0.10704,-0.1117 4.92159,4.9216 -2.91456,-2.8925 c -0.65505,-0.6934 -1.37409,-1.3217 -2.11407,-1.9174" /><path
               inkscape:connector-curvature="0"
               id="path122"
               style="fill:#37ac89;fill-opacity:1;fill-rule:nonzero;stroke:none"
               d="m 58.78225,357.2891 -0.007,0.008 -34.01952,34.1417 C 19.06741,383.1804 20.38332,372.055 21.8854,365.6314 L 43.06106,344.4557 C 46.78426,339.9064 52.43886,337 58.77527,337 c 4.79129,0 9.18116,1.6789 12.65304,4.4574 0.74231,0.5957 1.45903,1.224 2.1164,1.9174 l 2.9134,2.8925 6.29453,6.2514 c -0.02211,-0.007 -0.03956,-0.009 -0.05934,-0.0163 -13.88868,-4.0757 -23.81797,4.7052 -23.91105,4.7867" /></g></g></g></g></g></svg>