<?xml version="1.0" encoding="UTF-8" standalone="no"?>
<!-- Generated by IcoMoon.io -->

<svg
   xmlns:dc="http://purl.org/dc/elements/1.1/"
   xmlns:cc="http://creativecommons.org/ns#"
   xmlns:rdf="http://www.w3.org/1999/02/22-rdf-syntax-ns#"
   xmlns:svg="http://www.w3.org/2000/svg"
   xmlns="http://www.w3.org/2000/svg"
   xmlns:sodipodi="http://sodipodi.sourceforge.net/DTD/sodipodi-0.dtd"
   xmlns:inkscape="http://www.inkscape.org/namespaces/inkscape"
   version="1.1"
   width="16"
   height="16"
   viewBox="0 0 16 16"
   id="svg2"
   inkscape:version="0.48.5 r10040"
   sodipodi:docname="puzzle-piece.svg">
  <metadata
     id="metadata10">
    <rdf:RDF>
      <cc:Work
         rdf:about="">
        <dc:format>image/svg+xml</dc:format>
        <dc:type
           rdf:resource="http://purl.org/dc/dcmitype/StillImage" />
        <dc:title></dc:title>
      </cc:Work>
    </rdf:RDF>
  </metadata>
  <defs
     id="defs8" />
  <sodipodi:namedview
     pagecolor="#ffffff"
     bordercolor="#666666"
     borderopacity="1"
     objecttolerance="10"
     gridtolerance="10"
     guidetolerance="10"
     inkscape:pageopacity="0"
     inkscape:pageshadow="2"
     inkscape:window-width="1362"
     inkscape:window-height="745"
     id="namedview6"
     showgrid="false"
     inkscape:zoom="14.75"
     inkscape:cx="8"
     inkscape:cy="8"
     inkscape:window-x="2"
     inkscape:window-y="0"
     inkscape:window-maximized="1"
     inkscape:current-layer="svg2" />
  <path
     fill="#444444"
     d="M14.9 0.9c-1.1-1-2.5-1.3-3.1-0.4-0.7 1.1 0.5 1.7-0.3 2.5-0.5 0.6-2-0.8-2-0.8l-0.8-0.8-1.4 1.4c-0.6 0.7-2.1 1.5-2.6 1.1-0.7-0.6 0.1-1.8-0.5-2.6-0.7-1-2.1-0.8-3 0.3-1 1.1-1.4 2.4-0.5 3 1.1 0.7 1.9-0.3 2.7 0.5 0.4 0.4-0.2 1.7-0.5 2.1l-2.3 2.3 6.5 6.5 1.7-1.7c0.7-0.7 1.5-2 1.1-2.4-0.6-0.7-1.7 0.1-2.5-0.4-1-0.7-0.8-2 0.3-3s2.5-1.3 3.1-0.4c0.7 1.1-0.4 1.8 0.4 2.6 0.4 0.4 1.6-0.2 2-0.6l2.1-2.1-1.1-1.1c-0.6-0.6-1.9-2-1.4-2.5 0.6-0.7 1.7 0.2 2.5-0.4 0.9-0.8 0.6-2.1-0.4-3.1z"
     id="path4"
     style="fill:#26748e;fill-opacity:1" />
</svg>
